<svg width="31" height="31" viewBox="0 0 31 31" fill="none" xmlns="http://www.w3.org/2000/svg">
<path d="M5.01821 26.004C7.73488 28.6874 12.7401 28.0941 16.1977 24.6788C20.1488 20.7761 22.1941 19.6059 23.6289 18.8055C23.9188 18.6439 23.9908 18.2421 23.7556 18.0096C19.0943 13.4053 11.3125 16.8515 10.4719 22.9271M5.01821 26.004L3.22949 27.7708M5.01821 26.004C2.30153 23.3205 2.90292 18.3774 6.3605 14.9621C7.45468 14.1515 9.55286 11.8533 9.89131 8.75007C9.92558 8.43585 10.3248 8.27686 10.551 8.50033C12.2358 10.1646 13.0773 12.3464 13.0755 14.5276" stroke="#F8FAF8" stroke-width="1.5" stroke-linecap="round" stroke-linejoin="round"/>
<path d="M22.7229 16.7917C25.7585 12.1103 29.1043 6.10213 27.2275 3.93385C24.9916 1.35075 18.0945 6.37882 12.917 10.7681" stroke="#F8FAF8" stroke-width="1.5" stroke-linecap="round" stroke-linejoin="round"/>
</svg>
